{"title":"DareDevil [2003] BRRip x264 AAC-MS.","uid":5603012,"size":1993662116,"categoryP":"video","categoryS":"hd___movies","magnet":"?xt=urn:btih:219cf5c871b07d9223bac038f9210dd6a1cafcd5&amp;dn=DareDevil+%5B2003%5D+BRRip+x264+AAC-MS.&amp;tr=udp%3A%2F%2Ftracker.openbittorrent.com%3A80&amp;tr=udp%3A%2F%2Fopen.demonii.com%3A1337&amp;tr=udp%3A%2F%2Ftracker.coppersurfer.tk%3A6969&amp;tr=udp%3A%2F%2Fexodus.desync.com%3A6969","seeders":0,"leechers":0,"uploader":"rev-x","files":5,"time":1275415643,"description":"DareDevil [2003] BRRip H264-MS.mp4\n      Format : MPEG-4\n      Format profile : Base Media / Version 2\n      Codec ID : mp42\n      File size : 1.86 GiB\n      Duration : 2h 13mn\n      Overall bit rate : 1 996 Kbps\n      \n      \n   Video #1\n      Format : AVC\n      Format/Info : Advanced Video Codec\n      Format profile : &lt;a class=&quot;__cf_email__&quot; href=&quot;/cdn-cgi/l/email-protection&quot; data-cfemail=&quot;d098b9b7b8909ce3fee1&quot;&gt;[email&amp;#160;protected]&lt;/a&gt;&lt;script cf-hash='f9e31' type=&quot;text/javascript&quot;&gt;\n/* &lt;![CDATA[ */!function(){try{var t=&quot;currentScript&quot;in document?document.currentScript:function(){for(var t=document.getElementsByTagName(&quot;script&quot;),e=t.length;e--;)if(t[e].getAttribute(&quot;cf-hash&quot;))return t[e]}();if(t&amp;&amp;t.previousSibling){var e,r,n,i,c=t.previousSibling,a=c.getAttribute(&quot;data-cfemail&quot;);if(a){for(e=&quot;&quot;,r=parseInt(a.substr(0,2),16),n=2;a.length-n;n+=2)i=parseInt(a.substr(n,2),16)^r,e+=String.fromCharCode(i);e=document.createTextNode(e),c.parentNode.replaceChild(e,c)}}}catch(u){}}();/* ]]&gt; */&lt;/script&gt;\n      Format settings, CABAC : Yes\n      Format settings, ReFrames : 3 frames\n      Codec ID : avc1\n      Codec ID/Info : Advanced Video Coding\n      Duration : 2h 13mn\n      Bit rate mode : Variable\n      Bit rate : 1 800 Kbps\n      Width : 1 280 pixels\n      Height : 544 pixels\n      Display aspect ratio : 2.35\n      Frame rate mode : Variable\n      Frame rate : 23.976 fps\n      Minimum frame rate : 23.810 fps\n      Maximum frame rate : 24.390 fps\n      Resolution : 24 bits\n      Colorimetry : 4:2:0\n      Scan type : Progressive\n      Bits/(Pixel*Frame) : 0.108\n      Stream size : 1.67 GiB (90%)\n      Writing library : x264 core 65\n       \n   Audio #2\n      Format : AAC\n      Format/Info : Advanced Audio Codec\n      Format version : Version 4\n      Format profile : LC\n      Format settings, SBR : No\n      Codec ID : 40\n      Duration : 2h 13mn\n      Bit rate mode : Variable\n      Bit rate : 192 Kbps\n      Maximum bit rate : 266 Kbps\n      Channel(s) : 6 channels\n      Channel positions : Front: L C R, Rear: L R, LFE\n      Sampling rate : 48.0 KHz\n      Resolution : 16 bits\n      Stream size : 183 MiB (10%)\n      Language : English\n\nNote: Just Leave a comment............","torrent":{"xt":"urn:btih:219cf5c871b07d9223bac038f9210dd6a1cafcd5","amp;dn":"DareDevil+%5B2003%5D+BRRip+x264+AAC-MS.","amp;tr":["udp%3A%2F%2Ftracker.openbittorrent.com%3A80","udp%3A%2F%2Fopen.demonii.com%3A1337","udp%3A%2F%2Ftracker.coppersurfer.tk%3A6969","udp%3A%2F%2Fexodus.desync.com%3A6969"],"infoHash":"219cf5c871b07d9223bac038f9210dd6a1cafcd5","infoHashBuffer":{"type":"Buffer","data":[33,156,245,200,113,176,125,146,35,186,192,56,249,33,13,214,161,202,252,213]},"announce":[],"urlList":[]}}